PathFileType        4      (X/Y/Z)      Abduction.trc         																																																																												
DataRate	CameraRate	NumFrames	NumMarkers	Units	OrigDataRate	OrigDataStartFrame	OrigNumFrames																																																																					
100	100	9	25	mm	100	249	1991																																																																					
Frame#	Time	AA			AI			Ant_Sh			CV7			GH			LAH			Lat_Sh			LCAJ			LPH			Post_Sh			RAH			RCAJ			RHLE			RHME			RPH			RUA			SJN			SXS			TS			TV8			centelbow			centpxt8			centijc7			centLPHRPH			ScapulaThoracicContactPt		
		X1	Y1	Z1	X2	Y2	Z2	X3	Y3	Z3	X4	Y4	Z4	X5	Y5	Z5	X6	Y6	Z6	X7	Y7	Z7	X8	Y8	Z8	X9	Y9	Z9	X10	Y10	Z10	X11	Y11	Z11	X12	Y12	Z12	X13	Y13	Z13	X14	Y14	Z14	X15	Y15	Z15	X16	Y16	Z16	X17	Y17	Z17	X18	Y18	Z18	X19	Y19	Z19	X20	Y20	Z20	X21	Y21	Z21	X22	Y22	Z22	X23	Y23	Z23	X24	Y24	Z24	X25	Y25	Z25
249	2.48	-465.0951538	1556.184937	-26.16168976	-497.7570801	1375.773926	-78.32196808	-350.2309265	1541.231689	-11.82436848	-455.4777222	1599.655396	-206.3674316	-406.7254333	1529.665039	-15.95679379	-236.073288	1773.168213	-244.2743988	-415.7457886	1565.886719	5.976939678	-388.6419373	1561.968384	-385.8674316	-440.4533081	1726.556763	-259.0390015	-487.7361145	1513.079102	-21.88251495	-241.4875641	1771.979614	-146.5752258	-409.0581055	1580.609497	-55.48148346	-411.6530457	1451.733032	252.8666992	-351.318573	1350.156128	225.7266235	-440.8883667	1728.97522	-144.1510773	-460.8366394	1427.43042	96.17759705	-289.3853149	1510.983643	-205.1441193	-237.6318512	1335.036621	-200.8810883	-517.7402954	1512.232544	-124.9970169	-478.4711304	1310.58313	-201.5860443	-381.4858093	1400.94458	239.2966614	-358.0514908	1322.809875	-201.2335663	-372.4315186	1555.319519	-205.7557755	-440.6708374	1727.765991	-201.5950394	-493.5308431	1481.397135	-76.49355825
250	2.49	-464.9584351	1555.181152	-25.3934288	-498.2849731	1375.369263	-78.48603058	-350.4675903	1539.358643	-11.29879761	-455.5709534	1599.63562	-206.3007355	-406.9330139	1528.284912	-15.60764122	-236.4696198	1773.17627	-244.8246613	-415.6051025	1563.666138	7.106435776	-388.7794189	1561.855591	-385.8565063	-440.7973328	1726.370972	-259.2378235	-488.0053101	1512.385376	-21.79422569	-241.7114105	1772.233521	-147.0275879	-408.8956299	1579.762207	-54.68841171	-410.927063	1442.671997	251.2527008	-351.5811768	1341.103516	220.7310791	-441.1750488	1728.983643	-144.3003235	-459.5203247	1422.924438	94.41640472	-289.8353882	1510.90686	-205.2132874	-237.7626343	1334.961792	-200.7877197	-517.9638062	1512.316162	-125.0830231	-478.5549316	1310.521362	-201.5134583	-381.2541199	1391.887756	235.99189	-358.158783	1322.741577	-201.150589	-372.7031708	1555.27124	-205.7570114	-440.9861908	1727.677307	-201.7690735	-493.7357381	1480.955526	-76.32082748
251	2.5	-464.8907166	1553.891357	-24.56545258	-498.7767334	1375.078247	-78.64160919	-350.6354675	1537.306641	-11.22808933	-455.728241	1599.587769	-206.1020355	-407.1089783	1526.725464	-15.52055836	-236.8135834	1773.187256	-245.3295288	-415.4324036	1561.55835	8.121902466	-389.2578125	1561.586548	-385.7286987	-441.1211243	1726.136108	-259.3797302	-488.1452637	1511.542236	-21.68000984	-241.9678345	1772.508423	-147.6018524	-408.7042236	1578.946045	-53.81629181	-410.1044312	1433.508301	249.4567413	-351.7910461	1332.229248	215.5801239	-441.4208374	1729.05542	-144.4337311	-459.6007996	1418.14978	92.51787567	-291.775177	1510.033691	-205.4775238	-237.825119	1334.922974	-200.693573	-518.2155762	1512.557617	-125.1697769	-478.6889038	1310.49707	-201.3935089	-380.9477386	1382.868774	232.5184326	-358.2570114	1322.710022	-201.043541	-373.751709	1554.81073	-205.7897797	-441.2709808	1727.595764	-201.9067307	-493.9610087	1480.509074	-76.12561289
252	2.51	-464.9316406	1552.501953	-23.73815155	-499.4218445	1374.86084	-78.73926544	-350.7927551	1535.444336	-10.67385864	-455.9150696	1599.515259	-205.8326111	-407.1101074	1525.143188	-15.04339218	-237.1652222	1773.128174	-245.7308197	-415.2368774	1559.365479	9.021535873	-389.3599854	1561.549927	-385.5830078	-441.4698792	1725.902466	-259.4739685	-488.079895	1510.333008	-21.32565498	-242.2587128	1772.829834	-148.094223	-408.5995789	1578.079346	-52.84769821	-409.1096497	1424.480835	247.3767548	-351.8695984	1323.780762	210.3366547	-441.7437744	1729.164917	-144.5722656	-459.4484253	1413.928711	90.6701889	-291.9278259	1509.921875	-205.261795	-237.8927765	1334.880127	-200.6086731	-518.447998	1512.672119	-125.0945892	-478.8316956	1310.495483	-201.3584442	-380.489624	1374.130798	228.8567047	-358.362236	1322.687805	-200.9835587	-373.9214478	1554.718567	-205.5472031	-441.6068268	1727.533691	-202.0231171	-494.2671611	1480.011637	-75.85733541
253	2.52	-465.0064697	1551.322998	-22.93343735	-500.2416687	1374.645996	-78.85809326	-350.8581238	1533.177979	-10.58650208	-456.1176758	1599.442383	-205.5274506	-407.2138367	1523.30188	-14.8490715	-237.6430664	1773.073486	-246.2274475	-415.0021973	1557.109741	9.790549278	-389.4966431	1561.540405	-385.3988342	-441.9025574	1725.586304	-259.547821	-487.9275513	1509.157104	-20.95401192	-242.6011353	1773.081543	-148.7789459	-408.4723511	1577.270874	-51.87785721	-407.9575806	1415.592651	245.0463867	-352.1100464	1315.244019	204.8488007	-442.0797119	1729.257202	-144.5787811	-459.6459656	1409.569092	88.45127869	-292.1624756	1509.763672	-205.0624237	-238.0466766	1334.854736	-200.4888458	-518.6324463	1512.685303	-124.9939423	-478.8941345	1310.443115	-201.2809601	-380.0338135	1365.418335	224.9475937	-358.4704056	1322.648926	-200.884903	-374.1400757	1554.603027	-205.2949371	-441.9911346	1727.421753	-202.0633011	-494.6268616	1479.551432	-75.59515762
254	2.53	-465.0548401	1550.262695	-21.99738312	-500.9441223	1374.364868	-79.00875092	-350.8770752	1531.044678	-10.12070656	-456.3774719	1599.349365	-205.1975555	-407.0874023	1521.586792	-14.47412682	-238.0917511	1772.989014	-246.7774963	-414.671814	1554.986938	10.89266396	-389.6547852	1561.544922	-385.196106	-442.2948303	1725.240723	-259.5859985	-487.8580322	1507.996582	-20.72971535	-242.903244	1773.310059	-149.2047424	-408.2487183	1576.491821	-50.92173767	-406.7493286	1406.888184	242.6306152	-353.7631836	1306.097534	199.1280518	-442.3944702	1729.33667	-144.5754547	-459.7510986	1405.39856	86.44573975	-292.3582764	1509.647095	-204.8554535	-238.2068176	1334.723145	-200.4521942	-518.7336426	1512.462769	-124.868309	-478.9690552	1310.385742	-201.1803894	-380.2562561	1356.492859	220.8793335	-358.5879364	1322.554443	-200.8162918	-374.3678741	1554.49823	-205.0265045	-442.3446503	1727.288696	-202.0807266	-494.9108683	1479.030111	-75.29148102
255	2.54	-465.0266113	1549.360596	-21.12471199	-502.650177	1374.428833	-78.90386963	-350.8234558	1528.843872	-10.09469414	-456.6314392	1599.310181	-204.9042816	-407.0584717	1519.833252	-14.36921501	-238.6205292	1773.026855	-247.2819824	-414.3631592	1552.959106	11.90191174	-389.8972778	1561.566772	-384.9532166	-442.6717834	1724.907104	-259.5914612	-487.8766785	1506.883667	-20.5123558	-243.2185974	1773.57605	-149.494751	-408.0414429	1575.769653	-50.02768707	-405.5050049	1398.108765	239.9067688	-354.3442993	1297.944702	193.4323425	-442.6695251	1729.360962	-144.5493622	-460.6004028	1401.972778	83.84650421	-292.5832825	1509.531006	-204.6064606	-238.516098	1334.635254	-200.3749695	-518.8016357	1512.210205	-124.6875305	-479.0184021	1310.276001	-201.02771	-379.9246521	1348.026733	216.6695557	-358.7672501	1322.455627	-200.7013397	-374.6073608	1554.420593	-204.7553711	-442.6706543	1727.134033	-202.0704117	-495.492808	1478.666545	-74.90537071
256	2.55	-464.8130493	1548.279541	-20.4705925	-503.1781616	1373.998047	-78.79273987	-350.7892151	1527.039429	-9.657126427	-456.7653809	1599.324219	-204.6520386	-407.0719299	1518.514038	-13.98954868	-239.1165619	1773.09729	-247.5743713	-414.0430603	1550.937378	12.77056789	-390.1359863	1561.606323	-384.7553711	-443.109436	1724.533081	-259.5160828	-487.9082947	1506.269653	-20.21201324	-243.5688171	1773.842773	-149.7117462	-407.8594055	1575.132568	-49.22289658	-404.4180908	1389.379272	237.0976105	-355.6790161	1289.412109	187.10289	-442.8873901	1729.376831	-144.5235596	-460.5921326	1398.105713	81.65285492	-292.8153381	1509.434937	-204.3564758	-238.7352142	1334.593384	-200.2739105	-518.8262329	1511.952148	-124.4701309	-479.0525513	1310.271973	-200.9020996	-380.0485535	1339.395691	212.1002502	-358.8938828	1322.432678	-200.5880051	-374.7903595	1554.379578	-204.5042572	-442.9984131	1726.954956	-202.0198212	-495.6058146	1478.076579	-74.5778211
257	2.56	-464.5392456	1547.423706	-19.7091713	-504.9968567	1373.294434	-78.23931122	-350.7811279	1525.425049	-9.334614754	-456.9117432	1599.342896	-204.4035034	-407.3833618	1517.307373	-13.61865997	-239.5926208	1773.209839	-247.8691101	-413.9129333	1548.520264	13.50849342	-390.3780823	1561.665527	-384.4776611	-443.5613403	1724.264648	-259.3830566	-487.9378052	1505.754639	-19.71557808	-243.9860535	1774.177002	-149.9688263	-407.388855	1574.592163	-48.29430389	-403.3537292	1380.977661	234.1932068	-356.0947571	1281.542114	180.8424835	-443.0705261	1729.384766	-144.5184479	-460.7184143	1394.385498	79.86507416	-292.9545288	1509.332031	-204.0906067	-238.9255981	1334.569824	-200.1163788	-518.8828735	1511.80481	-124.2789001	-479.2004089	1310.243408	-200.7015533	-379.7242432	1331.259888	207.5178452	-359.0630035	1322.406616	-200.4089661	-374.933136	1554.337463	-204.2470551	-443.3159332	1726.824707	-201.9507523	-496.1396586	1477.50765	-74.07579422
